<svg width="100" height="86" viewBox="0 0 100 86" fill="none" xmlns="http://www.w3.org/2000/svg">
<path d="M21.1667 62.7482L29.1667 54.9445C26.3334 54.3074 23.6667 53.3519 21.3334 51.7593L21.1667 62.7482Z" fill="#FFCE31"/>
<path d="M47.1666 2.54816L39.1666 10.3519C42 10.9889 44.6666 11.9445 47 13.537L47.1666 2.54816Z" fill="#FFCE31"/>
<path d="M2.66675 45.0703L14.1667 44.9111C12.6667 42.6815 11.5001 40.1333 10.8334 37.4259L2.66675 45.0703Z" fill="#FFCE31"/>
<path d="M65.6666 20.226L54.1666 20.3852C55.6666 22.6148 56.8333 25.163 57.5 27.8704L65.6666 20.226Z" fill="#FFCE31"/>
<path d="M2.66675 20.226L10.8334 27.8704C11.5001 25.163 12.5001 22.6148 14.1667 20.3852L2.66675 20.226Z" fill="#FFCE31"/>
<path d="M65.6666 45.0703L57.5 37.4259C56.8333 40.1333 55.8333 42.6815 54.1666 44.9111L65.6666 45.0703Z" fill="#FFCE31"/>
<path d="M21.1667 2.54816L21.3334 13.537C23.6667 12.1037 26.3334 10.9889 29.1667 10.3519L21.1667 2.54816Z" fill="#FFCE31"/>
<path d="M47.1666 62.7482L47 51.7593C44.6666 53.1926 42 54.3074 39.1666 54.9445L47.1666 62.7482Z" fill="#FFCE31"/>
<path d="M14.5 45.7075L10 55.7408L20.5 51.4408C18.1667 49.8482 16.1667 47.9371 14.5 45.7075Z" fill="#FFCE31"/>
<path d="M53.8334 19.5889L58.3334 9.55554L47.8334 13.8555C50.1667 15.4481 52.1667 17.3592 53.8334 19.5889Z" fill="#FFCE31"/>
<path d="M10.6667 28.5074L0 32.6481L10.6667 36.7889C10.5 35.5148 10.3333 34.0815 10.3333 32.6481C10.1667 31.2148 10.3333 29.9407 10.6667 28.5074Z" fill="#FFCE31"/>
<path d="M57.6666 36.7889L68.3333 32.6481L57.6666 28.5074C58 29.7815 58 31.2148 58 32.6481C58 34.0815 58 35.3555 57.6666 36.7889Z" fill="#FFCE31"/>
<path d="M20.5 13.8555L10 9.55554L14.5 19.5889C16.1667 17.3592 18.1667 15.4481 20.5 13.8555Z" fill="#FFCE31"/>
<path d="M47.8334 51.4408L58.3334 55.7408L53.8334 45.7075C52.1667 47.9371 50.1667 49.8482 47.8334 51.4408Z" fill="#FFCE31"/>
<path d="M38.5 10.1926L34.1667 0L29.8334 10.1926C31.1667 10.0333 32.6667 9.87407 34.1667 9.87407C35.6667 9.71481 37 9.87407 38.5 10.1926Z" fill="#FFCE31"/>
<path d="M29.8334 55.1037L34.1667 65.2963L38.5 55.1037C37.1667 55.263 35.6667 55.4222 34.1667 55.4222C32.6667 55.4222 31.3334 55.4222 29.8334 55.1037Z" fill="#FFCE31"/>
<path d="M34.1667 53.3519C46.1328 53.3519 55.8333 44.0825 55.8333 32.6482C55.8333 21.2138 46.1328 11.9445 34.1667 11.9445C22.2005 11.9445 12.5 21.2138 12.5 32.6482C12.5 44.0825 22.2005 53.3519 34.1667 53.3519Z" fill="#FFCE31"/>
<path d="M25.3333 82.9739C23.6666 82.9739 21.9999 82.6554 20.4999 82.1776C14.1666 80.1073 9.83325 74.3739 9.83325 67.8443C9.83325 63.5443 11.8333 59.2443 15.1666 56.3776C15.9999 55.5814 16.9999 54.9443 17.9999 54.4665L18.9999 50.9628C21.4999 42.2036 29.8333 36.1517 39.1666 36.1517C40.1666 36.1517 40.9999 36.1517 42.1666 36.311L44.6666 36.7888L44.9999 35.9925C48.8333 29.3036 55.9999 25.3221 63.6666 25.3221C75.4999 25.3221 84.9999 34.7184 84.9999 46.185V48.2554C85.8332 48.5739 86.8332 49.0517 87.6666 49.5295C93.3332 52.7147 96.8332 58.7665 96.8332 65.1369C96.8332 73.5776 90.9999 80.7443 82.4999 82.6554C81.1666 82.9739 79.6666 83.1332 78.3332 83.1332H25.3333V82.9739Z" fill="white"/>
<path d="M63.8334 28.3481C73.8334 28.3481 82.0001 36.3111 82.0001 46.1852V47.6185C77.8334 47.937 74.0001 49.5296 71.0001 52.0777C73.1667 50.8037 75.8334 50.1666 78.6668 50.1666C79.6668 50.1666 80.6667 50.3259 81.6667 50.4852C83.3334 50.8037 84.8334 51.4407 86.3334 52.237C90.8334 54.7852 94.0001 59.5629 94.0001 65.137C94.0001 72.1444 89.0001 78.1963 82.1667 79.6296C81.0001 79.9481 80.0001 79.9481 78.6668 79.9481H25.3334C24.0001 79.9481 22.6667 79.7889 21.5001 79.3111C16.5001 77.7185 13.0001 73.1 13.0001 67.8444C13.0001 64.1814 14.6667 60.9963 17.3334 58.7666C18.5001 57.8111 19.8334 57.0148 21.3334 56.3778C22.6667 55.9 24.0001 55.7407 25.5001 55.7407C29.5001 55.7407 33.0001 57.6518 35.3334 60.5185H35.5001C32.8334 55.7407 28.0001 52.3963 22.1667 51.9185C24.3334 44.5926 31.1667 39.1777 39.3334 39.1777C40.1668 39.1777 41.0001 39.337 41.8334 39.337C43.5001 39.4963 45.0001 39.974 46.5001 40.6111C52.0001 43 56.0001 48.0963 57.0001 54.1481V53.9889C57.0001 47.1407 53.3334 41.0889 48.0001 37.5852C51.0001 32.0111 56.8334 28.3481 63.8334 28.3481ZM63.8334 22.2963C55.5001 22.2963 47.6667 26.437 43.1667 33.4444H42.6668C41.3334 33.2852 40.3334 33.1259 39.1667 33.1259C28.5001 33.1259 18.8334 40.1333 16.0001 50.1666L15.1667 52.5555C14.3334 53.0333 13.6667 53.5111 13.0001 54.1481C9.00008 57.4926 6.66675 62.5889 6.66675 67.8444C6.66675 75.6481 11.8334 82.6555 19.5001 85.0444C21.3334 85.6815 23.3334 86 25.3334 86H78.5001C80.1667 86 81.6667 85.8407 83.3334 85.5222C93.1668 83.2926 100 74.8518 100 65.137C100 57.6518 95.8334 50.6444 89.1668 46.9814L88.1668 46.5037V46.3444C88.1668 32.9666 77.3334 22.2963 63.8334 22.2963Z" fill="#75D6FF"/>
</svg>
