<svg width="82" height="50" viewBox="0 0 82 50" fill="none" xmlns="http://www.w3.org/2000/svg">
<path d="M4 49L0.2 35.8H3.86L6.1 46.22L8.46 35.8H11.58L14 46.2L16.2 35.8H19.74L15.92 49H12.18L10.62 42.6L10.02 39.38H9.98L9.4 42.6L7.86 49H4ZM24.5867 49.2C22.9201 49.2 21.6001 48.7467 20.6267 47.84C19.6667 46.9333 19.1867 45.6533 19.1867 44C19.1867 42.9067 19.4067 41.9733 19.8467 41.2C20.3001 40.4133 20.9134 39.82 21.6867 39.42C22.4734 39.0067 23.3867 38.8 24.4267 38.8C25.4801 38.8 26.3734 39.0067 27.1067 39.42C27.8534 39.82 28.4201 40.38 28.8067 41.1C29.1934 41.8067 29.3867 42.62 29.3867 43.54C29.3867 43.7933 29.3734 44.04 29.3467 44.28C29.3334 44.5067 29.3201 44.7 29.3067 44.86H22.4867C22.5801 45.5533 22.8067 46.0533 23.1667 46.36C23.5267 46.6533 24.0001 46.8 24.5867 46.8C25.0934 46.8 25.4934 46.7 25.7867 46.5C26.0934 46.3 26.3201 46.02 26.4667 45.66L29.1867 46.56C29.0001 47.1333 28.6734 47.62 28.2067 48.02C27.7534 48.4067 27.2067 48.7 26.5667 48.9C25.9401 49.1 25.2801 49.2 24.5867 49.2ZM24.4267 41.18C23.3467 41.18 22.7067 41.8 22.5067 43.04H26.1667C26.0201 41.8 25.4401 41.18 24.4267 41.18ZM36.4688 42.66C36.4688 42.1933 36.3354 41.8267 36.0688 41.56C35.8154 41.28 35.4688 41.14 35.0288 41.14C34.5888 41.14 34.2088 41.2533 33.8888 41.48C33.5821 41.6933 33.3688 42.08 33.2488 42.64L30.3688 41.96C30.5554 41 31.0488 40.2333 31.8488 39.66C32.6488 39.0867 33.7754 38.8 35.2288 38.8C36.6954 38.8 37.8288 39.1267 38.6288 39.78C39.4421 40.42 39.8488 41.36 39.8488 42.6V46.26C39.8488 46.78 40.0821 47.04 40.5488 47.04C40.7888 47.04 40.9821 47.0133 41.1288 46.96L40.9288 48.9C40.5288 49.0867 40.0421 49.18 39.4688 49.18C38.8421 49.18 38.3021 49.06 37.8488 48.82C37.3954 48.5667 37.0888 48.1867 36.9288 47.68C36.6488 48.2 36.2021 48.5867 35.5888 48.84C34.9888 49.08 34.3488 49.2 33.6688 49.2C32.6421 49.2 31.8221 48.9667 31.2088 48.5C30.6088 48.02 30.3088 47.3333 30.3088 46.44C30.3088 45.72 30.5221 45.1267 30.9488 44.66C31.3888 44.18 32.0754 43.8467 33.0088 43.66L36.4688 42.94V42.66ZM33.6688 46.12C33.6688 46.4133 33.7754 46.6333 33.9888 46.78C34.2021 46.9267 34.4554 47 34.7488 47C35.2021 47 35.6021 46.8667 35.9488 46.6C36.2954 46.32 36.4688 45.8867 36.4688 45.3V44.74L34.8488 45.08C34.4488 45.16 34.1488 45.28 33.9488 45.44C33.7621 45.5867 33.6688 45.8133 33.6688 46.12ZM48.8402 39V41.42H45.8602V45.44C45.8602 45.92 45.9735 46.2667 46.2002 46.48C46.4402 46.68 46.7668 46.78 47.1802 46.78C47.5002 46.78 47.7735 46.7467 48.0002 46.68C48.2268 46.6 48.4402 46.4867 48.6402 46.34L49.0002 48.44C48.6668 48.6667 48.2402 48.8533 47.7202 49C47.2135 49.1333 46.7002 49.2 46.1802 49.2C45.0335 49.2 44.1268 48.96 43.4602 48.48C42.8068 47.9867 42.4735 47.16 42.4602 46V41.42H40.7402V39H42.4602V36.76L45.8602 35.82V39H48.8402ZM50.245 49V34.76H53.645V40.82C53.9383 40.1533 54.3583 39.6533 54.905 39.32C55.4517 38.9733 56.085 38.8 56.805 38.8C57.8317 38.8 58.665 39.1 59.305 39.7C59.945 40.3 60.265 41.18 60.265 42.34V49H56.865V43.28C56.865 42.56 56.7317 42.0667 56.465 41.8C56.2117 41.52 55.8717 41.38 55.445 41.38C54.965 41.38 54.545 41.5667 54.185 41.94C53.825 42.3 53.645 42.9 53.645 43.74V49H50.245ZM67.1273 49.2C65.4607 49.2 64.1407 48.7467 63.1673 47.84C62.2073 46.9333 61.7273 45.6533 61.7273 44C61.7273 42.9067 61.9473 41.9733 62.3873 41.2C62.8407 40.4133 63.454 39.82 64.2273 39.42C65.014 39.0067 65.9273 38.8 66.9673 38.8C68.0207 38.8 68.914 39.0067 69.6473 39.42C70.394 39.82 70.9607 40.38 71.3473 41.1C71.734 41.8067 71.9273 42.62 71.9273 43.54C71.9273 43.7933 71.914 44.04 71.8873 44.28C71.874 44.5067 71.8607 44.7 71.8473 44.86H65.0273C65.1207 45.5533 65.3473 46.0533 65.7073 46.36C66.0673 46.6533 66.5407 46.8 67.1273 46.8C67.634 46.8 68.034 46.7 68.3273 46.5C68.634 46.3 68.8607 46.02 69.0073 45.66L71.7273 46.56C71.5407 47.1333 71.214 47.62 70.7473 48.02C70.294 48.4067 69.7473 48.7 69.1073 48.9C68.4807 49.1 67.8207 49.2 67.1273 49.2ZM66.9673 41.18C65.8873 41.18 65.2473 41.8 65.0473 43.04H68.7073C68.5607 41.8 67.9807 41.18 66.9673 41.18ZM73.4294 49V39H76.4294L76.5694 41.16C76.8094 40.4267 77.176 39.8533 77.6694 39.44C78.176 39.0133 78.8227 38.8 79.6094 38.8C79.8627 38.8 80.076 38.8267 80.2494 38.88C80.436 38.92 80.5827 38.9667 80.6894 39.02L80.3494 41.82C80.216 41.78 80.0427 41.74 79.8294 41.7C79.6294 41.66 79.3827 41.64 79.0894 41.64C78.476 41.64 77.9427 41.8333 77.4894 42.22C77.0494 42.6067 76.8294 43.1867 76.8294 43.96V49H73.4294Z" fill="white"/>
<path d="M25.417 23.3482L28.825 20.4444C27.618 20.2074 26.482 19.8519 25.488 19.2593L25.417 23.3482Z" fill="#FFCE31"/>
<path d="M36.493 0.948151L33.085 3.85186C34.292 4.08889 35.428 4.44445 36.422 5.03704L36.493 0.948151Z" fill="#FFCE31"/>
<path d="M17.536 16.7704L22.435 16.7111C21.796 15.8815 21.299 14.9333 21.015 13.9259L17.536 16.7704Z" fill="#FFCE31"/>
<path d="M44.3739 7.52594L39.4749 7.5852C40.1139 8.41483 40.6109 9.36298 40.8949 10.3704L44.3739 7.52594Z" fill="#FFCE31"/>
<path d="M17.536 7.52594L21.015 10.3704C21.299 9.36298 21.725 8.41483 22.435 7.5852L17.536 7.52594Z" fill="#FFCE31"/>
<path d="M44.3739 16.7704L40.8949 13.9259C40.6109 14.9333 40.1849 15.8815 39.4749 16.7111L44.3739 16.7704Z" fill="#FFCE31"/>
<path d="M25.417 0.948151L25.488 5.03704C26.482 4.50371 27.618 4.08889 28.825 3.85186L25.417 0.948151Z" fill="#FFCE31"/>
<path d="M36.493 23.3482L36.422 19.2593C35.428 19.7926 34.292 20.2074 33.085 20.4444L36.493 23.3482Z" fill="#FFCE31"/>
<path d="M22.577 17.0074L20.66 20.7408L25.133 19.1407C24.139 18.5482 23.287 17.837 22.577 17.0074Z" fill="#FFCE31"/>
<path d="M39.3329 7.28889L41.2499 3.55556L36.7769 5.15556C37.7709 5.74815 38.6229 6.45926 39.3329 7.28889Z" fill="#FFCE31"/>
<path d="M20.944 10.6074L16.4 12.1481L20.944 13.6889C20.873 13.2148 20.802 12.6815 20.802 12.1481C20.731 11.6148 20.802 11.1407 20.944 10.6074Z" fill="#FFCE31"/>
<path d="M40.9659 13.6889L45.5099 12.1481L40.9659 10.6074C41.1079 11.0815 41.1079 11.6148 41.1079 12.1481C41.1079 12.6815 41.1079 13.1556 40.9659 13.6889Z" fill="#FFCE31"/>
<path d="M25.133 5.15556L20.66 3.55556L22.577 7.28889C23.287 6.45926 24.139 5.74815 25.133 5.15556Z" fill="#FFCE31"/>
<path d="M36.7769 19.1407L41.2499 20.7408L39.3329 17.0074C38.6229 17.837 37.7709 18.5482 36.7769 19.1407Z" fill="#FFCE31"/>
<path d="M32.801 3.79259L30.955 0L29.109 3.79259C29.677 3.73333 30.316 3.67407 30.955 3.67407C31.594 3.61481 32.162 3.67407 32.801 3.79259Z" fill="#FFCE31"/>
<path d="M29.109 20.5037L30.955 24.2963L32.801 20.5037C32.233 20.563 31.594 20.6222 30.955 20.6222C30.316 20.6222 29.748 20.6222 29.109 20.5037Z" fill="#FFCE31"/>
<path d="M30.955 19.8519C36.0526 19.8519 40.185 16.4028 40.185 12.1481C40.185 7.89351 36.0526 4.44444 30.955 4.44444C25.8574 4.44444 21.725 7.89351 21.725 12.1481C21.725 16.4028 25.8574 19.8519 30.955 19.8519Z" fill="#FFCE31"/>
<path d="M27.192 30.874C26.482 30.874 25.772 30.7555 25.133 30.5777C22.435 29.8074 20.589 27.674 20.589 25.2444C20.589 23.6444 21.441 22.0444 22.861 20.9777C23.216 20.6814 23.642 20.4444 24.068 20.2666L24.494 18.9629C25.559 15.7036 29.109 13.4518 33.085 13.4518C33.511 13.4518 33.866 13.4518 34.363 13.5111L35.428 13.6888L35.57 13.3925C37.203 10.9036 40.256 9.42216 43.5219 9.42216C48.5629 9.42216 52.6099 12.9185 52.6099 17.1851V17.9555C52.9649 18.074 53.3909 18.2518 53.7459 18.4296C56.1599 19.6148 57.6509 21.8666 57.6509 24.237C57.6509 27.3777 55.1659 30.0444 51.5449 30.7555C50.9769 30.874 50.3379 30.9333 49.7699 30.9333H27.192V30.874Z" fill="white"/>
<path d="M43.593 10.5481C47.853 10.5481 51.332 13.5111 51.332 17.1852V17.7185C49.557 17.837 47.924 18.4296 46.646 19.3778C47.569 18.9037 48.705 18.6667 49.912 18.6667C50.338 18.6667 50.764 18.7259 51.19 18.7852C51.9 18.9037 52.539 19.1407 53.178 19.437C55.095 20.3852 56.444 22.163 56.444 24.237C56.444 26.8444 54.314 29.0963 51.403 29.6296C50.906 29.7481 50.48 29.7481 49.912 29.7481H27.192C26.624 29.7481 26.056 29.6889 25.559 29.5111C23.429 28.9185 21.938 27.2 21.938 25.2444C21.938 23.8815 22.648 22.6963 23.784 21.8667C24.281 21.5111 24.849 21.2148 25.488 20.9778C26.056 20.8 26.624 20.7407 27.263 20.7407C28.967 20.7407 30.458 21.4519 31.452 22.5185H31.523C30.387 20.7407 28.328 19.4963 25.843 19.3185C26.766 16.5926 29.677 14.5778 33.156 14.5778C33.511 14.5778 33.866 14.637 34.221 14.637C34.931 14.6963 35.57 14.8741 36.209 15.1111C38.552 16 40.256 17.8963 40.682 20.1481V20.0889C40.682 17.5407 39.12 15.2889 36.848 13.9852C38.126 11.9111 40.611 10.5481 43.593 10.5481ZM43.593 8.2963C40.043 8.2963 36.706 9.83704 34.789 12.4444H34.576C34.008 12.3852 33.582 12.3259 33.085 12.3259C28.541 12.3259 24.423 14.9333 23.216 18.6667L22.861 19.5556C22.506 19.7333 22.222 19.9111 21.938 20.1481C20.234 21.3926 19.24 23.2889 19.24 25.2444C19.24 28.1481 21.441 30.7556 24.707 31.6444C25.488 31.8815 26.34 32 27.192 32H49.841C50.551 32 51.19 31.9407 51.9 31.8222C56.089 30.9926 59 27.8519 59 24.237C59 21.4519 57.225 18.8444 54.385 17.4815L53.959 17.3037V17.2444C53.959 12.2667 49.344 8.2963 43.593 8.2963Z" fill="#75D6FF"/>
</svg>
