<svg width="29" height="30" viewBox="0 0 29 30" fill="none" xmlns="http://www.w3.org/2000/svg">
<path d="M8.4375 13.2C10.6121 13.2 12.375 11.3196 12.375 9.00005C12.375 6.68045 10.6121 4.80005 8.4375 4.80005C6.26288 4.80005 4.5 6.68045 4.5 9.00005C4.5 11.3196 6.26288 13.2 8.4375 13.2Z" fill="#FFCE31"/>
<path d="M10.0312 4.1L8.4375 0L6.84375 4.1C7.35937 4 7.875 3.95 8.4375 3.95C9 3.95 9.51562 4 10.0312 4.1Z" fill="#FFCE31"/>
<path d="M6.84375 13.8999L8.4375 17.9999L10.0312 13.8999C9.51562 13.9999 9 14.0499 8.4375 14.0499C7.875 14.0499 7.35937 13.9999 6.84375 13.8999Z" fill="#FFCE31"/>
<path d="M13.0312 10.7L16.875 9.00005L13.0312 7.30005C13.125 7.85005 13.1719 8.40005 13.1719 9.00005C13.1719 9.60005 13.125 10.15 13.0312 10.7Z" fill="#FFCE31"/>
<path d="M3.84375 7.30005L0 9.00005L3.84375 10.7C3.75 10.15 3.70312 9.60005 3.70312 9.00005C3.70312 8.40005 3.75 7.85005 3.84375 7.30005Z" fill="#FFCE31"/>
<path d="M12.7969 6.7499L14.3906 2.6499L10.5469 4.3499C10.9687 4.6499 11.3906 4.9999 11.7656 5.4499C12.1875 5.8499 12.5156 6.2999 12.7969 6.7499" fill="#FFCE31"/>
<path d="M4.07812 11.25L2.48438 15.35L6.32812 13.65C5.90625 13.35 5.48437 13 5.10937 12.55C4.6875 12.15 4.35937 11.75 4.07812 11.25" fill="#FFCE31"/>
<path d="M10.5469 13.65L14.3906 15.35L12.7969 11.25C12.5156 11.7 12.1875 12.15 11.7656 12.55C11.3906 13 11.0156 13.35 10.5469 13.65" fill="#FFCE31"/>
<path d="M6.32812 4.3499L2.48438 2.6499L4.07812 6.7499C4.35937 6.2999 4.6875 5.8499 5.10937 5.4499C5.48437 4.9999 5.90625 4.6499 6.32812 4.3499" fill="#FFCE31"/>
<path d="M10.6291 16C10.2679 16 9.8616 15.9498 9.50042 15.7993C8.05573 15.2475 7.0625 13.7425 7.0625 12.0368C7.0625 10.8829 7.51397 9.82943 8.28146 9.07692C8.46205 8.87625 8.68778 8.72575 8.91352 8.57525L9.13925 7.67224C9.72616 5.41472 11.6223 3.80936 13.7894 3.80936C14.0151 3.80936 14.2408 3.80936 14.4666 3.85953C14.6471 3.9097 14.8729 3.95987 15.0535 4.01003L15.1438 3.80936C16.0016 2.10368 17.672 1 19.4327 1C22.1415 1 24.3537 3.40803 24.3537 6.41806V6.9699C24.5794 7.07023 24.76 7.17057 24.9406 7.2709C26.2499 8.12375 27.0625 9.67893 27.0625 11.3344C27.0625 13.5418 25.7081 15.398 23.7668 15.8997C23.4508 16 23.1347 16 22.8187 16H10.6291" fill="white"/>
<path d="M19.5583 1.59214C21.9154 1.59214 23.8566 3.69789 23.8566 6.31722V6.67674C22.886 6.77946 21.9617 7.19033 21.2684 7.85801C21.7768 7.49849 22.4238 7.34441 23.0709 7.34441C23.302 7.34441 23.5331 7.39577 23.7642 7.39577C24.1339 7.49849 24.5037 7.65257 24.8734 7.85801C25.9364 8.52568 26.6759 9.80967 26.6759 11.2991C26.6759 13.1994 25.4743 14.7915 23.9028 15.1511C23.6255 15.2024 23.3944 15.2538 23.1171 15.2538H10.4995C10.1759 15.2538 9.85242 15.2024 9.57511 15.0997C8.41964 14.6888 7.58771 13.4562 7.58771 12.0181C7.58771 11.0423 7.95746 10.1692 8.60452 9.60423C8.88183 9.34743 9.20536 9.14199 9.57511 8.98792C9.89863 8.8852 10.2222 8.78248 10.5457 8.78248C11.4701 8.78248 12.3482 9.29607 12.8566 10.0665H12.9028C12.302 8.78248 11.1003 7.90937 9.75998 7.75529C10.2684 5.80363 11.886 4.36556 13.8272 4.36556C14.0121 4.36556 14.2432 4.36556 14.428 4.41692C14.7978 4.46828 15.2138 4.62236 15.5373 4.77644C16.8314 5.39275 17.802 6.77946 17.9869 8.3716V8.32024C17.9869 6.4713 17.1549 4.87915 15.8608 3.95468C16.5079 2.61934 17.9407 1.59214 19.5583 1.59214V1.59214ZM19.5583 0C17.5709 0 15.7684 1.12991 14.7054 2.92749H14.5667C14.2432 2.87613 14.0121 2.87613 13.7348 2.87613C11.1928 2.87613 8.97427 4.72508 8.28099 7.44713L8.09611 8.06344C7.91124 8.16616 7.72637 8.32024 7.58771 8.47432C6.61712 9.39879 6.0625 10.7341 6.0625 12.1208C6.0625 14.2266 7.26418 16.0755 9.0667 16.7432C9.52889 16.8973 9.99107 17 10.4533 17H22.9785C23.3482 17 23.718 16.9486 24.1339 16.8459C26.4449 16.281 28.0625 14.0211 28.0625 11.4018C28.0625 9.39879 27.0919 7.54985 25.5205 6.57402C25.428 6.52266 25.3818 6.4713 25.2894 6.41994V6.36858C25.2894 2.87613 22.7012 0 19.5583 0V0Z" fill="#B6C1D1"/>
<path d="M12.5625 22.0001C12.2813 22.8001 12.5157 23.6001 13.0782 23.8001C13.6407 24.0001 14.2969 23.5501 14.5782 22.7501C14.9063 21.8501 14.9063 20.5501 14.7188 19.1001C13.6407 20.1001 12.8438 21.1001 12.5625 22.0001" fill="#75D6FF"/>
<path d="M18.7032 22.8001C19.0313 21.9001 19.0313 20.6001 18.8438 19.1501C17.8125 20.1001 17.0625 21.1001 16.7344 22.0501C16.4532 22.8501 16.6875 23.6501 17.25 23.8501C17.8125 24.0501 18.4219 23.5501 18.7032 22.8001Z" fill="#75D6FF"/>
<path d="M22.9688 19.1501C21.9375 20.1001 21.1875 21.1001 20.8594 22.0501C20.5782 22.8501 20.8125 23.6501 21.375 23.8501C21.9375 24.0501 22.5938 23.6001 22.875 22.8001C23.1563 21.8501 23.1563 20.6001 22.9688 19.1501" fill="#75D6FF"/>
<path d="M8.39066 22.0001C8.10941 22.8001 8.34378 23.6001 8.90628 23.8001C9.46878 24.0001 10.125 23.5501 10.4063 22.7501C10.7344 21.8501 10.7344 20.5501 10.5469 19.1001C9.46878 20.1001 8.71878 21.1001 8.39066 22.0001Z" fill="#75D6FF"/>
<path d="M9.28128 28.15C9.00003 28.95 9.23441 29.75 9.79691 29.95C10.3594 30.15 11.0157 29.7 11.2969 28.9C11.625 28 11.625 26.7 11.4375 25.25C10.3594 26.2 9.60941 27.2 9.28128 28.15" fill="#75D6FF"/>
<path d="M15.4219 28.9C15.75 28 15.75 26.7 15.5625 25.25C14.5313 26.2 13.7813 27.2 13.4532 28.15C13.1719 28.95 13.4063 29.75 13.9688 29.95C14.5313 30.15 15.1407 29.7 15.4219 28.9Z" fill="#75D6FF"/>
<path d="M19.6875 25.25C18.6563 26.2 17.9063 27.2 17.5782 28.15C17.2969 28.95 17.5313 29.75 18.0938 29.95C18.6563 30.15 19.3125 29.7 19.5938 28.9C19.875 28 19.9219 26.7 19.6875 25.25" fill="#75D6FF"/>
<path d="M5.15628 28.15C4.87503 28.95 5.10941 29.75 5.67191 29.95C6.23441 30.15 6.89066 29.7 7.17191 28.9C7.50003 28 7.50003 26.7 7.31253 25.25C6.23441 26.2 5.43753 27.2 5.15628 28.15" fill="#75D6FF"/>
</svg>
