<svg width="24" height="30" viewBox="0 0 24 30" fill="none" xmlns="http://www.w3.org/2000/svg">
<path d="M8.12497 21.7C7.84372 22.5 8.0781 23.35 8.6406 23.6C9.2031 23.8 9.90622 23.35 10.1875 22.5C10.5156 21.55 10.5156 20.2 10.3281 18.7C9.24997 19.7 8.4531 20.7 8.12497 21.7" fill="#75D6FF"/>
<path d="M14.5 22.5C14.8281 21.55 14.8281 20.2 14.6406 18.7C13.5625 19.7 12.7656 20.75 12.4375 21.7C12.1562 22.5 12.3906 23.35 12.9531 23.6C13.5156 23.8 14.2187 23.3 14.5 22.5" fill="#75D6FF"/>
<path d="M18.9062 18.7C17.8281 19.7 17.0312 20.75 16.7031 21.7C16.4218 22.5 16.6562 23.35 17.2187 23.6C17.7812 23.8 18.4843 23.35 18.7656 22.5C19.1406 21.55 19.1406 20.2 18.9062 18.7" fill="#75D6FF"/>
<path d="M3.81247 21.7C3.53122 22.5 3.7656 23.35 4.3281 23.6C4.8906 23.8 5.59372 23.35 5.87497 22.5C6.2031 21.55 6.2031 20.2 6.0156 18.7C4.93747 19.7 4.1406 20.7 3.81247 21.7" fill="#75D6FF"/>
<path d="M4.74997 28.05C4.46872 28.85 4.7031 29.7001 5.2656 29.9501C5.8281 30.1501 6.53122 29.7001 6.81247 28.8501C7.1406 27.9001 7.1406 26.55 6.9531 25.05C5.87497 26.05 5.0781 27.1 4.74997 28.05" fill="#75D6FF"/>
<path d="M11.125 28.8501C11.4531 27.9001 11.4531 26.55 11.2656 25.05C10.1875 26.05 9.3906 27.1 9.06247 28.05C8.78122 28.85 9.0156 29.7001 9.5781 29.9501C10.1406 30.1501 10.8437 29.7001 11.125 28.8501" fill="#75D6FF"/>
<path d="M15.5312 25.05C14.4531 26.05 13.6562 27.1 13.3281 28.05C13.0468 28.85 13.2812 29.7001 13.8437 29.9501C14.4062 30.1501 15.1093 29.7001 15.3906 28.8501C15.7656 27.9001 15.7656 26.6 15.5312 25.05" fill="#75D6FF"/>
<path d="M0.437473 28.05C0.156223 28.85 0.390599 29.7001 0.953098 29.9501C1.5156 30.1501 2.21872 29.7001 2.49997 28.8501C2.8281 27.9001 2.8281 26.55 2.6406 25.05C1.56247 26.05 0.765598 27.1 0.437473 28.05" fill="#75D6FF"/>
<path d="M5.92187 15.85C5.54687 15.85 5.125 15.8 4.75 15.65C3.20312 15.1 2.21875 13.6 2.21875 11.9C2.21875 10.75 2.6875 9.65005 3.48437 8.90005C3.67187 8.70005 3.90625 8.55005 4.1875 8.40005L4.42187 7.50005C5.03125 5.20005 7.04688 3.60005 9.25 3.60005C9.48438 3.60005 9.71875 3.60005 9.95312 3.65005C10.1406 3.70005 10.375 3.75005 10.5625 3.80005L10.6562 3.60005C11.5469 1.85005 13.2812 0.800049 15.1094 0.800049C17.9219 0.800049 20.2188 3.25005 20.2188 6.25005V6.80005C20.4531 6.90005 20.6406 7.00005 20.875 7.10005C22.2344 7.95005 23.0781 9.50005 23.0781 11.15C23.0781 13.35 21.6719 15.25 19.6563 15.7C19.3281 15.8 19 15.8 18.6719 15.8L5.92187 15.85" fill="white"/>
<path d="M15.1094 1.6C17.5 1.6 19.4687 3.7 19.4687 6.25V6.6C18.4375 6.7 17.5469 7.1 16.8437 7.8C17.3594 7.45 18.0156 7.3 18.6719 7.3C18.9062 7.3 19.1406 7.35 19.375 7.35C19.75 7.45 20.125 7.6 20.5 7.8C21.5781 8.45 22.3281 9.75 22.3281 11.2C22.3281 13.05 21.1094 14.6 19.4687 15C19.1875 15.05 18.9531 15.1 18.625 15.1H5.92187C5.59375 15.1 5.26562 15.05 4.98437 14.95C3.8125 14.55 2.92187 13.35 2.92187 11.95C2.92187 11 3.29687 10.15 3.95312 9.55C4.23437 9.3 4.5625 9.1 4.9375 8.95C5.26562 8.85 5.59375 8.75 5.92187 8.75C6.85937 8.75 7.75 9.25 8.26562 10H8.3125C7.70312 8.75 6.48438 7.9 5.125 7.75C5.64063 5.85 7.28125 4.45 9.25 4.45C9.4375 4.45 9.67187 4.45 9.85937 4.5C10.2344 4.55 10.6562 4.7 10.9844 4.85C12.2969 5.5 13.2812 6.8 13.4687 8.35V8.3C13.4687 6.5 12.625 4.9 11.3125 4C12.0156 2.55 13.4687 1.6 15.1094 1.6V1.6ZM15.1094 0C13.0937 0 11.2187 1.1 10.1875 2.9H10.0469C9.71875 2.85 9.48437 2.85 9.20312 2.85C6.625 2.85 4.375 4.7 3.625 7.3L3.4375 7.95C3.25 8.05 3.0625 8.2 2.92187 8.35C1.9375 9.25 1.375 10.55 1.375 11.95C1.375 14 2.59375 15.8 4.42187 16.45C4.89062 16.6 5.35938 16.7 5.82813 16.7H18.625C19 16.7 19.4219 16.65 19.7969 16.55C22.1406 16 23.7812 13.8 23.7812 11.2C23.7812 9.25 22.7969 7.45 21.2031 6.45C21.1094 6.4 21.0625 6.35 20.9687 6.3V6.25C20.9687 2.8 18.3437 0 15.1094 0V0Z" fill="#B6C1D1"/>
</svg>
