<svg width="22" height="30" viewBox="0 0 22 30" fill="none" xmlns="http://www.w3.org/2000/svg">
<path d="M1.12503 20.45C0.890658 21.2 1.07816 21.9499 1.59378 22.1499C2.10941 22.3499 2.71878 21.8999 3.00003 21.1499C3.28128 20.2499 3.32816 19.1 3.09378 17.7C2.10941 18.65 1.40628 19.6 1.12503 20.45Z" fill="#75D6FF"/>
<path d="M2.25003 27.7C2.53128 26.8 2.57816 25.65 2.34378 24.25C1.35941 25.15 0.656283 26.1 0.375033 27C0.140658 27.75 0.328158 28.5 0.843784 28.7C1.35941 28.9 2.01566 28.45 2.25003 27.7Z" fill="#75D6FF"/>
<path d="M20.2032 17.7C19.2188 18.6 18.5157 19.55 18.2344 20.45C18 21.2 18.1875 21.9499 18.7032 22.1499C19.2188 22.3499 19.8282 21.8999 20.1094 21.1499C20.3438 20.2999 20.3907 19.1 20.2032 17.7Z" fill="#75D6FF"/>
<path d="M13.9688 26.95C13.7344 27.7 13.9219 28.4499 14.4375 28.6499C14.9532 28.8499 15.5625 28.3999 15.8438 27.6499C16.125 26.7499 16.1719 25.6 15.9375 24.2C15 25.15 14.2969 26.1 13.9688 26.95Z" fill="#75D6FF"/>
<path d="M18.0469 26.95C17.8125 27.7 18 28.4499 18.5157 28.6499C19.0313 28.8499 19.6407 28.3999 19.9219 27.6499C20.2032 26.7499 20.25 25.6 20.0157 24.2C19.0313 25.15 18.3282 26.1 18.0469 26.95Z" fill="#75D6FF"/>
<path d="M4.78128 26.95C4.54691 27.7 4.73441 28.4499 5.25003 28.6499C5.76566 28.8499 6.37503 28.3999 6.65628 27.6499C6.93753 26.7499 6.98441 25.6 6.75003 24.2C5.76566 25.15 5.06253 26.1 4.78128 26.95Z" fill="#75D6FF"/>
<path d="M7.54687 14.95L5.25 23.05H11.1094L9.14062 30L16.875 19.9H11.2969L12.6563 14.95H7.54687Z" fill="#FFCE31"/>
<path d="M4.59375 15.25C4.21875 15.25 3.84375 15.2 3.46875 15.05C2.01563 14.55 0.984375 13.1 0.984375 11.45C0.984375 10.35 1.45313 9.3 2.20313 8.6C2.39063 8.4 2.625 8.25 2.85938 8.1L3.09375 7.2C3.70312 5 5.625 3.45 7.78125 3.45C8.01562 3.45 8.20312 3.45 8.48438 3.5C8.67188 3.55 8.85938 3.55 9.04688 3.65L9.14062 3.45C10.0312 1.8 11.6719 0.75 13.4531 0.75C16.2187 0.75 18.4219 3.1 18.4219 6V6.5C18.6094 6.6 18.8437 6.7 19.0312 6.8C20.3437 7.6 21.1406 9.1 21.1406 10.7C21.1406 12.8 19.7812 14.6 17.8594 15.1C17.5313 15.2 17.2031 15.2 16.9219 15.2H4.59375V15.25Z" fill="white"/>
<path d="M13.4531 1.5C15.7969 1.5 17.6719 3.5 17.6719 5.95V6.3C16.6875 6.4 15.7969 6.8 15.1406 7.45C15.6563 7.15 16.2656 6.95 16.875 6.95C17.1094 6.95 17.3438 7 17.5781 7C17.9531 7.1 18.3281 7.25 18.6563 7.45C19.7344 8.1 20.4375 9.3 20.4375 10.7C20.4375 12.5 19.2656 13.95 17.7188 14.35C17.3906 14.45 17.1563 14.5 16.875 14.5H4.59375C4.26563 14.5 3.98437 14.45 3.70312 14.35C2.57812 13.95 1.73438 12.8 1.73438 11.45C1.73438 10.55 2.10937 9.7 2.71875 9.15C3 8.9 3.32813 8.7 3.65625 8.55C3.9375 8.45 4.26563 8.4 4.59375 8.4C5.53125 8.4 6.32813 8.85 6.89063 9.6H6.9375C6.32813 8.4 5.20313 7.55 3.84375 7.45C4.35938 5.6 5.95313 4.25 7.82813 4.25C8.01563 4.25 8.25 4.25 8.4375 4.3C8.8125 4.35 9.1875 4.45 9.51563 4.65C10.7813 5.25 11.7188 6.5 11.9063 8.05V8C11.9063 6.3 11.0625 4.75 9.79688 3.85C10.5 2.45 11.9062 1.5 13.4531 1.5ZM13.4531 0C11.5312 0 9.75 1.05 8.71875 2.8H8.57813C8.29688 2.75 8.01563 2.75 7.78125 2.75C5.29688 2.75 3.09375 4.5 2.4375 7.05L2.29688 7.65C2.10938 7.75 1.96875 7.9 1.78125 8.05C0.84375 8.9 0.328125 10.15 0.328125 11.5C0.328125 13.5 1.5 15.2 3.28125 15.85C3.70312 16 4.17187 16.1 4.64062 16.1H16.9219C17.2969 16.1 17.6719 16.05 18.0469 15.95C20.2969 15.4 21.8906 13.3 21.8906 10.8C21.8906 8.9 20.9531 7.15 19.4062 6.25C19.3125 6.2 19.2656 6.15 19.1719 6.1V6.05C19.125 2.7 16.5938 0 13.4531 0Z" fill="#B6C1D1"/>
</svg>
