<svg width="29" height="30" viewBox="0 0 29 30" fill="none" xmlns="http://www.w3.org/2000/svg">
<path d="M8.67188 28.8498L11.9531 25.2498C10.7812 24.9998 9.70313 24.4998 8.71875 23.7998L8.67188 28.8498Z" fill="#FFE62E"/>
<path d="M19.4531 1.1499L16.1719 4.7499C17.3438 4.9999 18.4219 5.4999 19.4063 6.1999L19.4531 1.1499" fill="#FFE62E"/>
<path d="M1.07812 20.75L5.8125 20.7C5.15625 19.65 4.6875 18.5 4.45313 17.25L1.07812 20.75Z" fill="#FFE62E"/>
<path d="M27.0469 9.25L22.3125 9.3C22.9219 10.35 23.3906 11.5 23.6719 12.75L27.0469 9.25Z" fill="#FFE62E"/>
<path d="M1.07812 9.25L4.45313 12.75C4.6875 11.5 5.15625 10.35 5.8125 9.3L1.07812 9.25" fill="#FFE62E"/>
<path d="M27.0469 20.75L23.6719 17.25C23.4375 18.5 22.9688 19.65 22.3125 20.7L27.0469 20.75Z" fill="#FFE62E"/>
<path d="M8.67188 1.1499L8.71875 6.1999C9.70313 5.5499 10.7812 5.0499 11.9531 4.7499L8.67188 1.1499" fill="#FFE62E"/>
<path d="M19.4531 28.8498L19.4063 23.7998C18.4219 24.4998 17.3438 24.9998 16.1719 25.2498L19.4531 28.8498Z" fill="#FFE62E"/>
<path d="M6 21L4.125 25.65L8.48437 23.65C7.5 22.9 6.65625 22 6 21Z" fill="#FFCE31"/>
<path d="M22.125 9.0001L24 4.3501L19.6875 6.3501C20.625 7.1001 21.4688 8.0001 22.125 9.0001Z" fill="#FFCE31"/>
<path d="M4.40625 13.1499L0 14.9999L4.40625 16.8499C4.26563 16.2499 4.21875 15.6499 4.21875 14.9999C4.21875 14.3499 4.26563 13.7499 4.40625 13.1499Z" fill="#FFCE31"/>
<path d="M23.7188 16.8499L28.125 14.9999L23.7188 13.1499C23.8125 13.7499 23.9063 14.3999 23.9063 14.9999C23.9063 15.6499 23.8594 16.2499 23.7188 16.8499Z" fill="#FFCE31"/>
<path d="M8.4375 6.3999L4.07812 4.3999L5.95313 9.0499C6.65625 7.9999 7.5 7.0999 8.4375 6.3999Z" fill="#FFCE31"/>
<path d="M19.6875 23.5999L24.0469 25.5999L22.1719 20.95C21.4687 22 20.625 22.8999 19.6875 23.5999Z" fill="#FFCE31"/>
<path d="M15.7969 4.7L14.0625 0L12.3281 4.7C12.8906 4.6 13.5 4.5 14.0625 4.5C14.625 4.5 15.2344 4.55 15.7969 4.7Z" fill="#FFCE31"/>
<path d="M12.3281 25.3L14.0625 30L15.7969 25.3C15.2344 25.45 14.6719 25.5 14.0625 25.5C13.4531 25.5 12.8906 25.45 12.3281 25.3Z" fill="#FFCE31"/>
<path d="M14.0625 24.5C18.9813 24.5 22.9688 20.2467 22.9688 15C22.9688 9.75329 18.9813 5.5 14.0625 5.5C9.14371 5.5 5.15625 9.75329 5.15625 15C5.15625 20.2467 9.14371 24.5 14.0625 24.5Z" fill="#FFCE31"/>
</svg>
