<svg width="29" height="28" viewBox="0 0 29 28" fill="none" xmlns="http://www.w3.org/2000/svg">
<path d="M5.95312 20.2L8.20312 17.75C7.40625 17.55 6.65625 17.25 6 16.75L5.95312 20.2" fill="#FFCE31"/>
<path d="M13.2656 1.30005L11.0156 3.75005C11.8125 3.95005 12.5625 4.25005 13.2188 4.75005L13.2656 1.30005Z" fill="#FFCE31"/>
<path d="M0.75 14.65L3.98438 14.6C3.5625 13.9 3.23438 13.1 3.04688 12.25L0.75 14.65" fill="#FFCE31"/>
<path d="M18.4688 6.8501L15.2344 6.9001C15.6562 7.6001 15.9844 8.4001 16.1719 9.2501L18.4688 6.8501Z" fill="#FFCE31"/>
<path d="M0.75 6.8501L3.04688 9.2501C3.23438 8.4001 3.51563 7.6001 3.98438 6.9001L0.75 6.8501" fill="#FFCE31"/>
<path d="M18.4688 14.65L16.1719 12.25C15.9844 13.1 15.7031 13.9 15.2344 14.6L18.4688 14.65Z" fill="#FFCE31"/>
<path d="M5.95312 1.30005L6 4.75005C6.65625 4.30005 7.40625 3.95005 8.20312 3.75005L5.95312 1.30005Z" fill="#FFCE31"/>
<path d="M13.2656 20.2L13.2188 16.75C12.5625 17.2 11.8125 17.55 11.0156 17.75L13.2656 20.2Z" fill="#FFCE31"/>
<path d="M4.07812 14.8501L2.8125 18.0001L5.76563 16.6501C5.10938 16.1501 4.54687 15.5501 4.07812 14.8501" fill="#FFCE31"/>
<path d="M15.1406 6.65L16.4063 3.5L13.4531 4.85C14.1094 5.35 14.6719 5.95 15.1406 6.65Z" fill="#FFCE31"/>
<path d="M3 9.44995L0 10.75L3 12.05C2.95312 11.65 2.90625 11.2 2.90625 10.75C2.85937 10.3 2.90625 9.89995 3 9.44995Z" fill="#FFCE31"/>
<path d="M16.2188 12.05L19.2187 10.75L16.2188 9.44995C16.3125 9.84995 16.3125 10.3 16.3125 10.75C16.3125 11.2 16.3125 11.6 16.2188 12.05Z" fill="#FFCE31"/>
<path d="M5.76563 4.85L2.8125 3.5L4.07812 6.65C4.54687 5.95 5.10938 5.35 5.76563 4.85" fill="#FFCE31"/>
<path d="M13.4531 16.6501L16.4063 18.0001L15.1406 14.8501C14.6719 15.5501 14.1094 16.1501 13.4531 16.6501" fill="#FFCE31"/>
<path d="M10.8281 3.7L9.60938 0.5L8.39062 3.7C8.76563 3.65 9.1875 3.6 9.60938 3.6C10.0313 3.55 10.4063 3.6 10.8281 3.7Z" fill="#FFCE31"/>
<path d="M8.39062 17.8L9.60938 21L10.8281 17.8C10.4531 17.85 10.0313 17.9 9.60938 17.9C9.1875 17.9 8.8125 17.9 8.39062 17.8Z" fill="#FFCE31"/>
<path d="M9.60938 17.25C12.9749 17.25 15.7031 14.3399 15.7031 10.75C15.7031 7.16015 12.9749 4.25 9.60938 4.25C6.24389 4.25 3.51562 7.16015 3.51562 10.75C3.51562 14.3399 6.24389 17.25 9.60938 17.25Z" fill="#FFCE31"/>
<path d="M7.125 26.55C6.65625 26.55 6.1875 26.45 5.76563 26.3C3.98438 25.65 2.76562 23.85 2.76562 21.8C2.76562 20.45 3.32813 19.1 4.26563 18.2C4.5 17.95 4.78125 17.75 5.0625 17.6L5.34375 16.5C6.04687 13.75 8.39063 11.85 11.0156 11.85C11.2969 11.85 11.5312 11.85 11.8594 11.9L12.5625 12.05L12.6563 11.8C13.7344 9.69995 15.75 8.44995 17.9062 8.44995C21.2344 8.44995 23.9062 11.4 23.9062 15V15.65C24.1406 15.75 24.4219 15.9 24.6562 16.05C26.25 17.05 27.2344 18.95 27.2344 20.95C27.2344 23.6 25.5937 25.85 23.2031 26.45C22.8281 26.55 22.4062 26.6 22.0312 26.6H7.125V26.55Z" fill="white"/>
<path d="M17.9531 9.4C20.7656 9.4 23.0625 11.9 23.0625 15V15.45C21.8906 15.55 20.8125 16.05 19.9687 16.85C20.5781 16.45 21.3281 16.25 22.125 16.25C22.4063 16.25 22.6875 16.3 22.9688 16.35C23.4375 16.45 23.8594 16.65 24.2812 16.9C25.5469 17.7 26.4375 19.2 26.4375 20.95C26.4375 23.15 25.0312 25.05 23.1094 25.5C22.7812 25.6 22.5 25.6 22.125 25.6H7.125C6.75 25.6 6.375 25.55 6.04687 25.4C4.64062 24.9 3.65625 23.45 3.65625 21.8C3.65625 20.65 4.125 19.65 4.875 18.95C5.20312 18.65 5.57813 18.4 6 18.2C6.375 18.05 6.75 18 7.17187 18C8.29687 18 9.28125 18.6 9.9375 19.5H9.98437C9.23437 18 7.875 16.95 6.23438 16.8C6.84375 14.5 8.76563 12.8 11.0625 12.8C11.2969 12.8 11.5313 12.85 11.7656 12.85C12.2344 12.9 12.6562 13.05 13.0781 13.25C14.625 14 15.75 15.6 16.0313 17.5V17.45C16.0313 15.3 15 13.4 13.5 12.3C14.3437 10.55 15.9844 9.4 17.9531 9.4V9.4ZM17.9531 7.5C15.6094 7.5 13.4062 8.8 12.1406 11H12C11.625 10.95 11.3437 10.9 11.0156 10.9C8.01562 10.9 5.29688 13.1 4.5 16.25L4.26563 17C4.03125 17.15 3.84375 17.3 3.65625 17.5C2.53125 18.55 1.875 20.15 1.875 21.8C1.875 24.25 3.32812 26.45 5.48437 27.2C6 27.4 6.5625 27.5 7.125 27.5H22.0781C22.5469 27.5 22.9688 27.45 23.4375 27.35C26.2031 26.65 28.125 24 28.125 20.95C28.125 18.6 26.9531 16.4 25.0781 15.25L24.7969 15.1V15.05C24.7969 10.85 21.75 7.5 17.9531 7.5V7.5Z" fill="#75D6FF"/>
</svg>
